<mxfile host="Electron" agent="Mozilla/5.0 (Windows NT 10.0; Win64; x64) AppleWebKit/537.36 (KHTML, like Gecko) draw.io/24.7.17 Chrome/128.0.6613.36 Electron/32.0.1 Safari/537.36" version="24.7.17">
  <diagram name="第 1 页" id="_ymcQKxJG8oj5x3-9tUI">
    <mxGraphModel dx="1235" dy="1140" grid="0" gridSize="10" guides="1" tooltips="1" connect="1" arrows="1" fold="1" page="0" pageScale="1" pageWidth="1169" pageHeight="827" math="0" shadow="0">
      <root>
        <mxCell id="0" />
        <mxCell id="1" parent="0" />
        <mxCell id="7iDg4R-ruT1dwIxyRbXj-3" value="" style="edgeStyle=orthogonalEdgeStyle;rounded=0;orthogonalLoop=1;jettySize=auto;html=1;fontSize=16;fontStyle=1" edge="1" parent="1" source="7iDg4R-ruT1dwIxyRbXj-1" target="7iDg4R-ruT1dwIxyRbXj-2">
          <mxGeometry relative="1" as="geometry" />
        </mxCell>
        <mxCell id="7iDg4R-ruT1dwIxyRbXj-1" value="User Request" style="rounded=0;whiteSpace=wrap;html=1;fontSize=16;fontStyle=1;fillColor=#e6d0de;gradientColor=#d5739d;strokeColor=#996185;" vertex="1" parent="1">
          <mxGeometry x="400" y="30" width="120" height="60" as="geometry" />
        </mxCell>
        <mxCell id="7iDg4R-ruT1dwIxyRbXj-5" value="" style="edgeStyle=orthogonalEdgeStyle;rounded=0;orthogonalLoop=1;jettySize=auto;html=1;fontSize=16;fontStyle=1;entryX=1;entryY=0.5;entryDx=0;entryDy=0;entryPerimeter=0;" edge="1" parent="1" source="7iDg4R-ruT1dwIxyRbXj-2" target="7iDg4R-ruT1dwIxyRbXj-7">
          <mxGeometry relative="1" as="geometry">
            <mxPoint x="280" y="250" as="targetPoint" />
          </mxGeometry>
        </mxCell>
        <mxCell id="7iDg4R-ruT1dwIxyRbXj-12" value="" style="edgeStyle=orthogonalEdgeStyle;rounded=0;orthogonalLoop=1;jettySize=auto;html=1;fontSize=16;fontStyle=1" edge="1" parent="1" source="7iDg4R-ruT1dwIxyRbXj-2" target="7iDg4R-ruT1dwIxyRbXj-11">
          <mxGeometry relative="1" as="geometry" />
        </mxCell>
        <mxCell id="7iDg4R-ruT1dwIxyRbXj-2" value="Does the request contain JWT token?" style="strokeWidth=2;html=1;shape=mxgraph.flowchart.decision;whiteSpace=wrap;fontSize=16;fontStyle=1;fillColor=#f8cecc;strokeColor=#b85450;gradientColor=#ea6b66;" vertex="1" parent="1">
          <mxGeometry x="377.5" y="168" width="165" height="140" as="geometry" />
        </mxCell>
        <mxCell id="7iDg4R-ruT1dwIxyRbXj-6" value="No" style="text;html=1;align=center;verticalAlign=middle;resizable=0;points=[];autosize=1;strokeColor=none;fillColor=none;fontSize=16;fontStyle=1" vertex="1" parent="1">
          <mxGeometry x="290" y="208" width="40" height="30" as="geometry" />
        </mxCell>
        <mxCell id="7iDg4R-ruT1dwIxyRbXj-9" value="" style="edgeStyle=orthogonalEdgeStyle;rounded=0;orthogonalLoop=1;jettySize=auto;html=1;fontSize=16;fontStyle=1" edge="1" parent="1" source="7iDg4R-ruT1dwIxyRbXj-7" target="7iDg4R-ruT1dwIxyRbXj-8">
          <mxGeometry relative="1" as="geometry" />
        </mxCell>
        <mxCell id="7iDg4R-ruT1dwIxyRbXj-7" value="Does this request require a token?" style="strokeWidth=2;html=1;shape=mxgraph.flowchart.decision;whiteSpace=wrap;fontSize=16;fontStyle=1;fillColor=#f8cecc;gradientColor=#ea6b66;strokeColor=#b85450;" vertex="1" parent="1">
          <mxGeometry x="150" y="178" width="130" height="120" as="geometry" />
        </mxCell>
        <mxCell id="7iDg4R-ruT1dwIxyRbXj-8" value="Allow Request" style="rounded=0;whiteSpace=wrap;html=1;fontSize=16;fontStyle=1;fillColor=#dae8fc;gradientColor=#7ea6e0;strokeColor=#6c8ebf;" vertex="1" parent="1">
          <mxGeometry x="155" y="60" width="120" height="60" as="geometry" />
        </mxCell>
        <mxCell id="7iDg4R-ruT1dwIxyRbXj-10" value="No" style="text;html=1;align=center;verticalAlign=middle;resizable=0;points=[];autosize=1;strokeColor=none;fillColor=none;fontSize=16;fontStyle=1" vertex="1" parent="1">
          <mxGeometry x="210" y="168" width="40" height="30" as="geometry" />
        </mxCell>
        <mxCell id="7iDg4R-ruT1dwIxyRbXj-15" value="" style="edgeStyle=orthogonalEdgeStyle;rounded=0;orthogonalLoop=1;jettySize=auto;html=1;fontSize=16;fontStyle=1" edge="1" parent="1" source="7iDg4R-ruT1dwIxyRbXj-11" target="7iDg4R-ruT1dwIxyRbXj-14">
          <mxGeometry relative="1" as="geometry" />
        </mxCell>
        <mxCell id="7iDg4R-ruT1dwIxyRbXj-11" value="Parse JWT token" style="rounded=0;whiteSpace=wrap;html=1;fontSize=16;fontStyle=1;fillColor=#ffff88;strokeColor=#36393d;" vertex="1" parent="1">
          <mxGeometry x="400" y="365" width="120" height="60" as="geometry" />
        </mxCell>
        <mxCell id="7iDg4R-ruT1dwIxyRbXj-13" value="Yes" style="text;html=1;align=center;verticalAlign=middle;resizable=0;points=[];autosize=1;strokeColor=none;fillColor=none;fontSize=16;fontStyle=1" vertex="1" parent="1">
          <mxGeometry x="415" y="310" width="50" height="30" as="geometry" />
        </mxCell>
        <mxCell id="7iDg4R-ruT1dwIxyRbXj-16" value="" style="edgeStyle=orthogonalEdgeStyle;rounded=0;orthogonalLoop=1;jettySize=auto;html=1;fontSize=16;fontStyle=1" edge="1" parent="1" source="7iDg4R-ruT1dwIxyRbXj-14" target="7iDg4R-ruT1dwIxyRbXj-7">
          <mxGeometry relative="1" as="geometry" />
        </mxCell>
        <mxCell id="7iDg4R-ruT1dwIxyRbXj-19" value="" style="edgeStyle=orthogonalEdgeStyle;rounded=0;orthogonalLoop=1;jettySize=auto;html=1;fontSize=16;fontStyle=1" edge="1" parent="1" source="7iDg4R-ruT1dwIxyRbXj-14" target="7iDg4R-ruT1dwIxyRbXj-18">
          <mxGeometry relative="1" as="geometry" />
        </mxCell>
        <mxCell id="7iDg4R-ruT1dwIxyRbXj-14" value="Is the token valid?" style="strokeWidth=2;html=1;shape=mxgraph.flowchart.decision;whiteSpace=wrap;fontSize=16;fontStyle=1;fillColor=#f8cecc;gradientColor=#ea6b66;strokeColor=#b85450;" vertex="1" parent="1">
          <mxGeometry x="160" y="340" width="110" height="110" as="geometry" />
        </mxCell>
        <mxCell id="7iDg4R-ruT1dwIxyRbXj-17" value="No" style="text;html=1;align=center;verticalAlign=middle;resizable=0;points=[];autosize=1;strokeColor=none;fillColor=none;fontSize=16;fontStyle=1" vertex="1" parent="1">
          <mxGeometry x="220" y="338" width="40" height="30" as="geometry" />
        </mxCell>
        <mxCell id="7iDg4R-ruT1dwIxyRbXj-22" value="" style="edgeStyle=orthogonalEdgeStyle;rounded=0;orthogonalLoop=1;jettySize=auto;html=1;fontSize=16;fontStyle=1" edge="1" parent="1" source="7iDg4R-ruT1dwIxyRbXj-18" target="7iDg4R-ruT1dwIxyRbXj-21">
          <mxGeometry relative="1" as="geometry" />
        </mxCell>
        <mxCell id="7iDg4R-ruT1dwIxyRbXj-18" value="Get user information from Redis" style="rounded=0;whiteSpace=wrap;html=1;fontSize=16;fontStyle=1;fillColor=#cdeb8b;strokeColor=#36393d;" vertex="1" parent="1">
          <mxGeometry x="155" y="518" width="120" height="60" as="geometry" />
        </mxCell>
        <mxCell id="7iDg4R-ruT1dwIxyRbXj-20" value="Yes" style="text;html=1;align=center;verticalAlign=middle;resizable=0;points=[];autosize=1;strokeColor=none;fillColor=none;fontSize=16;fontStyle=1" vertex="1" parent="1">
          <mxGeometry x="210" y="450" width="50" height="30" as="geometry" />
        </mxCell>
        <mxCell id="7iDg4R-ruT1dwIxyRbXj-26" value="" style="edgeStyle=orthogonalEdgeStyle;rounded=0;orthogonalLoop=1;jettySize=auto;html=1;fontSize=16;fontStyle=1" edge="1" parent="1" source="7iDg4R-ruT1dwIxyRbXj-21" target="7iDg4R-ruT1dwIxyRbXj-25">
          <mxGeometry relative="1" as="geometry" />
        </mxCell>
        <mxCell id="7iDg4R-ruT1dwIxyRbXj-31" value="" style="edgeStyle=orthogonalEdgeStyle;rounded=0;orthogonalLoop=1;jettySize=auto;html=1;fontSize=16;fontStyle=1" edge="1" parent="1" source="7iDg4R-ruT1dwIxyRbXj-21" target="7iDg4R-ruT1dwIxyRbXj-30">
          <mxGeometry relative="1" as="geometry" />
        </mxCell>
        <mxCell id="7iDg4R-ruT1dwIxyRbXj-21" value="Does user info exist?" style="strokeWidth=2;html=1;shape=mxgraph.flowchart.decision;whiteSpace=wrap;fontSize=16;fontStyle=1;fillColor=#f8cecc;gradientColor=#ea6b66;strokeColor=#b85450;" vertex="1" parent="1">
          <mxGeometry x="355" y="500" width="100" height="100" as="geometry" />
        </mxCell>
        <mxCell id="7iDg4R-ruT1dwIxyRbXj-24" value="No" style="text;html=1;align=center;verticalAlign=middle;resizable=0;points=[];autosize=1;strokeColor=none;fillColor=none;fontSize=16;fontStyle=1" vertex="1" parent="1">
          <mxGeometry x="360" y="610" width="40" height="30" as="geometry" />
        </mxCell>
        <mxCell id="7iDg4R-ruT1dwIxyRbXj-29" value="" style="edgeStyle=orthogonalEdgeStyle;rounded=0;orthogonalLoop=1;jettySize=auto;html=1;fontSize=16;fontStyle=1" edge="1" parent="1" source="7iDg4R-ruT1dwIxyRbXj-25" target="7iDg4R-ruT1dwIxyRbXj-28">
          <mxGeometry relative="1" as="geometry" />
        </mxCell>
        <mxCell id="7iDg4R-ruT1dwIxyRbXj-25" value="Authentication Success, create AuthenticationToken" style="rounded=0;whiteSpace=wrap;html=1;fontSize=16;fontStyle=1;fillColor=#ffcccc;strokeColor=#36393d;" vertex="1" parent="1">
          <mxGeometry x="500" y="515" width="170" height="70" as="geometry" />
        </mxCell>
        <mxCell id="7iDg4R-ruT1dwIxyRbXj-27" value="Yes" style="text;html=1;align=center;verticalAlign=middle;resizable=0;points=[];autosize=1;strokeColor=none;fillColor=none;fontSize=16;fontStyle=1" vertex="1" parent="1">
          <mxGeometry x="430" y="500" width="50" height="30" as="geometry" />
        </mxCell>
        <mxCell id="7iDg4R-ruT1dwIxyRbXj-33" value="" style="edgeStyle=orthogonalEdgeStyle;rounded=0;orthogonalLoop=1;jettySize=auto;html=1;fontSize=16;fontStyle=1" edge="1" parent="1" source="7iDg4R-ruT1dwIxyRbXj-28" target="7iDg4R-ruT1dwIxyRbXj-32">
          <mxGeometry relative="1" as="geometry" />
        </mxCell>
        <mxCell id="7iDg4R-ruT1dwIxyRbXj-28" value="Store user info in SecurityContext" style="rounded=0;whiteSpace=wrap;html=1;fontSize=16;fontStyle=1;fillColor=#dae8fc;strokeColor=#6c8ebf;" vertex="1" parent="1">
          <mxGeometry x="720" y="520" width="120" height="60" as="geometry" />
        </mxCell>
        <mxCell id="7iDg4R-ruT1dwIxyRbXj-30" value="Throw authorization failed exception" style="whiteSpace=wrap;html=1;strokeWidth=2;fontSize=16;fontStyle=1;fillColor=#dae8fc;gradientColor=#7ea6e0;strokeColor=#6c8ebf;" vertex="1" parent="1">
          <mxGeometry x="327.5" y="670" width="155" height="60" as="geometry" />
        </mxCell>
        <mxCell id="7iDg4R-ruT1dwIxyRbXj-35" value="" style="edgeStyle=orthogonalEdgeStyle;rounded=0;orthogonalLoop=1;jettySize=auto;html=1;fontSize=16;fontStyle=1" edge="1" parent="1" source="7iDg4R-ruT1dwIxyRbXj-32" target="7iDg4R-ruT1dwIxyRbXj-34">
          <mxGeometry relative="1" as="geometry" />
        </mxCell>
        <mxCell id="7iDg4R-ruT1dwIxyRbXj-32" value="Subsequent requests can access Authentication info from SecurityContext" style="rounded=0;whiteSpace=wrap;html=1;fontSize=16;fontStyle=1;fillColor=#d5e8d4;strokeColor=#82b366;" vertex="1" parent="1">
          <mxGeometry x="705" y="320" width="150" height="140" as="geometry" />
        </mxCell>
        <mxCell id="7iDg4R-ruT1dwIxyRbXj-37" value="" style="edgeStyle=orthogonalEdgeStyle;rounded=0;orthogonalLoop=1;jettySize=auto;html=1;fontSize=16;fontStyle=1" edge="1" parent="1" source="7iDg4R-ruT1dwIxyRbXj-34" target="7iDg4R-ruT1dwIxyRbXj-36">
          <mxGeometry relative="1" as="geometry" />
        </mxCell>
        <mxCell id="7iDg4R-ruT1dwIxyRbXj-34" value="Perform permission control" style="rounded=0;whiteSpace=wrap;html=1;fontSize=16;fontStyle=1;fillColor=#ffe6cc;strokeColor=#d79b00;" vertex="1" parent="1">
          <mxGeometry x="720" y="198" width="120" height="60" as="geometry" />
        </mxCell>
        <mxCell id="7iDg4R-ruT1dwIxyRbXj-47" style="edgeStyle=orthogonalEdgeStyle;rounded=0;orthogonalLoop=1;jettySize=auto;html=1;entryX=1;entryY=0.5;entryDx=0;entryDy=0;" edge="1" parent="1" source="7iDg4R-ruT1dwIxyRbXj-36" target="7iDg4R-ruT1dwIxyRbXj-30">
          <mxGeometry relative="1" as="geometry">
            <Array as="points">
              <mxPoint x="950" y="70" />
              <mxPoint x="950" y="700" />
            </Array>
          </mxGeometry>
        </mxCell>
        <mxCell id="7iDg4R-ruT1dwIxyRbXj-36" value="Does the user have access?" style="strokeWidth=2;html=1;shape=mxgraph.flowchart.decision;whiteSpace=wrap;fontSize=16;fontStyle=1;fillColor=#f8cecc;gradientColor=#ea6b66;strokeColor=#b85450;" vertex="1" parent="1">
          <mxGeometry x="730" y="20" width="100" height="100" as="geometry" />
        </mxCell>
        <mxCell id="7iDg4R-ruT1dwIxyRbXj-39" value="No" style="text;html=1;align=center;verticalAlign=middle;resizable=0;points=[];autosize=1;strokeColor=none;fillColor=none;fontSize=16;fontStyle=1" vertex="1" parent="1">
          <mxGeometry x="830" y="90" width="40" height="30" as="geometry" />
        </mxCell>
        <mxCell id="7iDg4R-ruT1dwIxyRbXj-43" value="" style="endArrow=classic;html=1;rounded=0;exitX=0.5;exitY=0;exitDx=0;exitDy=0;exitPerimeter=0;entryX=0.5;entryY=0;entryDx=0;entryDy=0;fontSize=16;fontStyle=1" edge="1" parent="1" source="7iDg4R-ruT1dwIxyRbXj-36" target="7iDg4R-ruT1dwIxyRbXj-8">
          <mxGeometry width="50" height="50" relative="1" as="geometry">
            <mxPoint x="490" y="350" as="sourcePoint" />
            <mxPoint x="540" y="300" as="targetPoint" />
            <Array as="points">
              <mxPoint x="780" />
              <mxPoint x="215" />
            </Array>
          </mxGeometry>
        </mxCell>
        <mxCell id="7iDg4R-ruT1dwIxyRbXj-44" value="Yes" style="text;html=1;align=center;verticalAlign=middle;resizable=0;points=[];autosize=1;strokeColor=none;fillColor=none;fontSize=16;fontStyle=1" vertex="1" parent="1">
          <mxGeometry x="680" y="10" width="50" height="30" as="geometry" />
        </mxCell>
      </root>
    </mxGraphModel>
  </diagram>
</mxfile>
